<?xml version="1.0" encoding="UTF-8" standalone="no"?>
<svg
   width="214.85791mm"
   height="60.122425mm"
   viewBox="0 0 214.85791 60.122425"
   version="1.1"
   id="svg5"
   inkscape:version="1.1-alpha (db1a268, 2021-01-21)"
   sodipodi:docname="logo.svg"
   xmlns:inkscape="http://www.inkscape.org/namespaces/inkscape"
   xmlns:sodipodi="http://sodipodi.sourceforge.net/DTD/sodipodi-0.dtd"
   xmlns="http://www.w3.org/2000/svg"
   xmlns:svg="http://www.w3.org/2000/svg">
  <sodipodi:namedview
     id="namedview7"
     pagecolor="#505050"
     bordercolor="#eeeeee"
     borderopacity="1"
     objecttolerance="10.0"
     gridtolerance="10.0"
     guidetolerance="10.0"
     inkscape:pageshadow="0"
     inkscape:pageopacity="0"
     inkscape:pagecheckerboard="0"
     inkscape:document-units="mm"
     showgrid="false"
     inkscape:zoom="0.27049706"
     inkscape:cx="523.11105"
     inkscape:cy="197.78404"
     inkscape:window-width="1366"
     inkscape:window-height="705"
     inkscape:window-x="-8"
     inkscape:window-y="-8"
     inkscape:window-maximized="1"
     inkscape:current-layer="layer1"
     inkscape:snap-bbox="true"
     inkscape:bbox-paths="false"
     inkscape:snap-bbox-midpoints="true"
     inkscape:snap-bbox-edge-midpoints="true"
     fit-margin-top="0"
     fit-margin-left="0"
     fit-margin-right="0"
     fit-margin-bottom="0" />
  <defs
     id="defs2" />
  <g
     inkscape:label="Layer 1"
     inkscape:groupmode="layer"
     id="layer1"
     transform="translate(115.32751,-97.079035)">
    <ellipse
       style="font-variation-settings:'wdth' 75, 'wght' 600;fill:none;stroke:none;stroke-width:2.69999;stroke-miterlimit:4;stroke-dasharray:none;stroke-opacity:1"
       id="path9585"
       cx="276.08527"
       cy="5.431076"
       rx="1.3946018"
       ry="3.0216374" />
    <g
       id="g8549"
       transform="translate(205.11554,-19.284367)">
      <g
         id="g10851"
         style="stroke:#ffffff"
         transform="rotate(11.083524,62.922559,51.683683)">
        <path
           style="font-variation-settings:'wdth' 75, 'wght' 600;fill:none;stroke:#ffffff;stroke-width:2.5;stroke-miterlimit:4;stroke-dasharray:none"
           d="m 48.639458,76.497127 c 3.906009,0.299804 6.222862,-5.303922 6.522666,-9.209929 0.274843,-3.580792 -1.43764,-5.884511 -4.401771,-7.185642 0.03965,-0.164166 0.0651,-0.346491 0.0836,-0.540237 L 53.40372,32.761847 c 0.07089,-0.742237 -0.521009,-1.389909 -1.296122,-1.449403 -0.775111,-0.05949 -1.458921,0.490263 -1.502134,1.234623 l -1.56044,26.876176 c -0.01185,0.204012 -0.01358,0.395984 0.0032,0.570924 -3.065109,0.856795 -4.97905,2.385922 -5.253502,5.961618 -0.299804,3.906008 0.938748,10.241537 4.844755,10.541341 z"
           id="path846" />
        <path
           id="path4159"
           style="font-variation-settings:'wdth' 75, 'wght' 600;fill:none;stroke:#ffffff;stroke-width:5;stroke-miterlimit:4;stroke-dasharray:none"
           d="m 59.734264,29.977533 c -3.521893,-0.251083 -7.646696,0.450507 -7.633481,3.493511 -0.627008,9.669249 3.866127,12.622063 7.693025,12.915795 3.826896,0.293732 8.08717,-4.453203 8.380902,-8.280102 0.293733,-3.826898 -3.129462,-7.626554 -6.949432,-7.999729 -0.487734,-0.04765 -0.987885,-0.0936 -1.491013,-0.129489 z"
           sodipodi:nodetypes="ccssscc" />
      </g>
      <circle
         style="font-variation-settings:'wdth' 75, 'wght' 600;fill:none;stroke:#ffffff;stroke-width:2.3;stroke-miterlimit:4;stroke-dasharray:none;stroke-opacity:1"
         id="path9613"
         cx="61.436981"
         cy="-64.470367"
         r="3.6027212"
         transform="rotate(68.662461)" />
    </g>
    <g
       aria-label="Piew"
       id="text5330"
       style="font-size:67.8104px;line-height:1.25;font-family:Broadway;-inkscape-font-specification:'Broadway, Normal';fill:#ffffff;stroke-width:1.69527"
       transform="translate(205.11554,-19.284367)">
      <path
         d="m 114.9942,65.710166 v 0.927095 l 0.0331,6.357226 v 0.827763 c 0,0.827763 -5.55228,0.953903 -5.51501,0 0.0373,-0.953903 0.35226,-45.118419 0.35226,-45.118419 0,0 0.14928,-0.367574 0.38739,-0.348651 0.23811,0.01892 10.56972,0.536057 13.74833,1.065826 3.20069,0.529769 5.88264,1.478938 8.04586,2.847507 2.91373,1.832117 5.16524,4.381629 6.75455,7.648536 1.21405,2.494328 1.82108,5.110061 1.82108,7.8472 0,2.957876 -0.68428,5.783309 -2.05285,8.4763 -1.63345,3.22276 -3.95119,5.706051 -6.95322,7.449874 -2.97995,1.721748 -6.43448,2.582622 -10.3636,2.582622 -1.45686,0 -3.54282,-0.187626 -6.25789,-0.562879 z m 0.0331,-34.832296 -0.13243,24.336252 0.13243,-24.336252 c -2.11441,0.686547 -3.82141,16.817749 -1.55958,21.378327 1.96391,3.959879 4.06264,7.924678 11.88017,9.013197 3.0872,0.09137 6.51854,-1.387784 8.60605,-3.197827 2.66551,-2.913288 4.48251,-6.245757 4.48251,-10.307318 0,-3.862897 -1.30235,-7.361578 -3.90705,-10.496043 -1.85419,-2.229444 -4.24918,-3.851861 -7.18499,-4.867251 -2.9358,-1.01539 -12.31711,-1.523085 -12.31711,-1.523085 z"
         id="path7971"
         sodipodi:nodetypes="ccczzczcccsccsccccsccscsc" />
      <path
         d="m 179.60712,56.803429 c -5.08515,0.09067 -3.56398,8.249845 -3.56398,8.249845 0.46486,2.528978 3.06557,4.871868 4.00568,5.401637 1.08337,0.782957 5.84434,2.220387 8.18591,1.910475 2.53841,-0.335964 5.08799,-0.695321 7.58232,-2.085964 2.5164,-1.412717 4.69066,-3.355202 6.52278,-5.827457 0.59599,-0.816727 1.02642,-1.335458 1.29131,-1.556195 0.26489,-0.220737 0.55184,-0.331106 0.86087,-0.331106 0.37525,0 0.68429,0.143479 0.9271,0.430437 0.24281,0.264885 0.36421,0.607027 0.36421,1.026427 0,0.927095 -0.73947,2.174259 -2.2184,3.741492 -1.94249,2.008707 -4.35956,3.64216 -7.25121,4.900361 -2.86958,1.258201 -5.67294,1.887301 -8.41008,1.887301 -4.7017,0 -8.85156,-1.578269 -12.44957,-4.734808 -2.097,-1.854191 -3.70838,-4.138818 -4.83414,-6.853883 -0.99331,-2.383959 -1.48997,-4.767919 -1.48997,-7.151879 0,-2.295665 0.44147,-4.591329 1.32442,-6.886994 0.88295,-2.317738 2.097,-4.315408 3.64216,-5.993009 1.78797,-1.964559 3.90704,-3.487644 6.35723,-4.569255 2.40603,-1.059538 4.92243,-1.589307 7.5492,-1.589307 4.08363,0 7.78098,1.203017 11.09203,3.60905 5.16525,3.752529 9.25643,16.279055 7.68165,16.3235 -1.57478,0.04445 -7.71476,0 -7.71476,0 l -9.93316,0.03311 -9.5216,0.06622 z m 13.46175,-2.623577 v -9.229999 c -0.0441,-2.074928 -0.0883,-4.187617 -0.13244,-4.584944 -0.0441,-0.4194 -0.19865,-0.58655 -0.46355,-0.939729 -0.61806,-0.860874 -8.42314,0.738363 -10.29403,1.6123 -1.73861,0.812142 -4.07904,1.761092 -5.12136,2.530892 -0.54003,0.398837 -4.34766,3.275983 -1.44968,6.038217 0,0 2.9901,2.072827 5.91679,3.039279 2.51281,0.82978 4.52064,1.576545 7.10746,1.995137 1.25747,0.20348 4.43681,0.743896 4.43681,-0.461153 z"
         id="path7975"
         sodipodi:nodetypes="cscsccsscsccsccscccsczccccsccsscssss" />
      <path
         d="m 248.53597,61.036375 c 1.19198,-2.483291 7.58364,-15.306099 9.90138,-21.376366 0.55184,-1.456864 5.81919,-3.550673 6.21652,-3.550673 0.4194,0 0.78362,0.132442 1.09265,0.397327 0.30903,0.242811 0.46355,0.529769 0.46355,0.860874 0,0.309032 -0.12141,0.750506 -0.36422,1.324422 -0.22073,0.573916 -1.03746,2.406033 -2.45018,5.496351 l -4.20504,9.171622 -3.84082,8.277637 -3.1455,6.920104 -3.31106,7.582316 c -0.91491,2.095142 -12.09639,-22.250288 -12.51579,-21.554967 -0.4194,0.695321 -1.95352,3.366239 -3.34416,5.926788 0,0 -7.27263,15.66314 -8.41008,15.628179 -1.13745,-0.03496 -6.19167,-11.886687 -6.19167,-11.886687 l -4.73481,-9.006069 -4.0726,-7.814089 -5.13213,-9.767612 c 0,0 -0.94121,-1.886284 2.37125,-0.657421 1.97121,0.731285 4.71862,1.37154 5.49504,2.618242 2.74869,5.191231 11.41898,22.9363 12.33503,21.402178 0.91605,-1.534122 4.85447,-10.951194 5.56083,-12.253543 0.70636,-1.302348 5.1235,-13.716132 6.3337,-13.625857 1.2102,0.09028 10.75613,28.370535 11.94811,25.887244 z"
         id="path7977"
         sodipodi:nodetypes="zcscscccccszczccccsczszz" />
    </g>
    <rect
       style="fill:#ffffff;stroke-width:0.262003"
       id="rect14664"
       width="10.080464"
       height="38.745098"
       x="354.24612"
       y="16.461746"
       ry="1.336038" />
    <g
       id="g985">
      <text
         xml:space="preserve"
         style="font-style:normal;font-variant:normal;font-weight:normal;font-stretch:normal;font-size:74.8584px;line-height:1.25;font-family:Itim;-inkscape-font-specification:'Itim, Normal';font-variant-ligatures:normal;font-variant-caps:normal;font-variant-numeric:normal;font-variant-east-asian:normal;fill:#ffffff;fill-opacity:1;stroke:none;stroke-width:1.87146"
         x="299.66779"
         y="135.93642"
         id="text2203"><tspan
           sodipodi:role="line"
           id="tspan2201"
           style="font-style:normal;font-variant:normal;font-weight:normal;font-stretch:normal;font-size:74.8584px;font-family:Itim;-inkscape-font-specification:'Itim, Normal';font-variant-ligatures:normal;font-variant-caps:normal;font-variant-numeric:normal;font-variant-east-asian:normal;fill:#ffffff;stroke-width:1.87146"
           x="299.66779"
           y="135.93642">Piew</tspan></text>
      <path
         id="path2611"
         style="opacity:1;fill:#ffffff;stroke-width:0.965174"
         d="m 986.4375,296.67188 a 113.61795,113.61795 0 0 0 -113.61914,113.61718 113.61795,113.61795 0 0 0 48.05273,92.67383 c -6.10368,-9.11844 -5.38515,-25.82249 -2.38086,-36.67578 3.61595,-13.06295 11.82533,-17.34407 23.81641,-18.29492 0.0651,-0.66104 0.21034,-1.37106 0.40234,-2.11914 l 25.31641,-98.55078 c 0.3191,-1.24222 1.11429,-2.22015 2.13867,-2.86329 5.19573,-8.91189 20.99905,-8.15131 34.16404,-4.58398 v -0.002 c 2.1253,0.57598 4.23,1.1932 6.2793,1.80664 16.0517,4.80444 27.5285,23.95554 23.0586,40.10351 -4.4699,16.14796 -26.7055,32.9074 -42.8535,28.4375 -9.58319,-2.65272 -19.38488,-9.51431 -23.51367,-23.20312 l -18.01758,60.67383 c -0.20939,0.70514 -0.43472,1.36327 -0.70117,1.94336 10.0487,6.97961 14.72656,16.76802 11.10547,29.84961 -3.76146,13.58854 -15.42818,31.54298 -28.85547,29.8164 a 113.61795,113.61795 0 0 0 55.60742,14.60547 113.61795,113.61795 0 0 0 113.6172,-113.61719 113.61795,113.61795 0 0 0 -13.207,-53.08008 13.616584,13.616584 0 0 1 -8.4512,15.00782 13.616584,13.616584 0 0 1 -17.6367,-7.72852 13.616584,13.616584 0 0 1 7.7285,-17.63672 13.616584,13.616584 0 0 1 13.6601,2.29102 113.61795,113.61795 0 0 0 -95.7109,-52.4707 z"
         transform="scale(0.26458333)" />
    </g>
    <g
       id="g3487"
       transform="translate(205.11554,140.01015)">
      <g
         id="g3483"
         style="stroke:#ffffff"
         transform="rotate(11.083524,62.922559,51.683683)">
        <path
           style="font-variation-settings:'wdth' 75, 'wght' 600;fill:none;stroke:#ffffff;stroke-width:2.5;stroke-miterlimit:4;stroke-dasharray:none"
           d="m 48.639458,76.497127 c 3.906009,0.299804 6.222862,-5.303922 6.522666,-9.209929 0.274843,-3.580792 -1.43764,-5.884511 -4.401771,-7.185642 0.03965,-0.164166 0.0651,-0.346491 0.0836,-0.540237 L 53.40372,32.761847 c 0.07089,-0.742237 -0.521009,-1.389909 -1.296122,-1.449403 -0.775111,-0.05949 -1.458921,0.490263 -1.502134,1.234623 l -1.56044,26.876176 c -0.01185,0.204012 -0.01358,0.395984 0.0032,0.570924 -3.065109,0.856795 -4.97905,2.385922 -5.253502,5.961618 -0.299804,3.906008 0.938748,10.241537 4.844755,10.541341 z"
           id="path3479" />
        <path
           id="path3481"
           style="font-variation-settings:'wdth' 75, 'wght' 600;fill:none;stroke:#ffffff;stroke-width:5;stroke-miterlimit:4;stroke-dasharray:none"
           d="m 59.734264,29.977533 c -3.521893,-0.251083 -7.646696,0.450507 -7.633481,3.493511 -0.627008,9.669249 3.866127,12.622063 7.693025,12.915795 3.826896,0.293732 8.08717,-4.453203 8.380902,-8.280102 0.293733,-3.826898 -3.129462,-7.626554 -6.949432,-7.999729 -0.487734,-0.04765 -0.987885,-0.0936 -1.491013,-0.129489 z"
           sodipodi:nodetypes="ccssscc" />
      </g>
      <circle
         style="font-variation-settings:'wdth' 75, 'wght' 600;fill:none;stroke:#ffffff;stroke-width:2.3;stroke-miterlimit:4;stroke-dasharray:none;stroke-opacity:1"
         id="circle3485"
         cx="61.436981"
         cy="-64.470367"
         r="3.6027212"
         transform="rotate(68.662461)" />
    </g>
    <text
       xml:space="preserve"
       style="font-style:normal;font-variant:normal;font-weight:normal;font-stretch:normal;font-size:74.8584px;line-height:1.25;font-family:Itim;-inkscape-font-specification:'Itim, Normal';font-variant-ligatures:normal;font-variant-caps:normal;font-variant-numeric:normal;font-variant-east-asian:normal;fill:#ffffff;fill-opacity:1;stroke:none;stroke-width:1.87146"
       x="299.66779"
       y="215.27376"
       id="text3491"><tspan
         sodipodi:role="line"
         id="tspan3489"
         style="font-style:normal;font-variant:normal;font-weight:normal;font-stretch:normal;font-size:74.8584px;font-family:Itim;-inkscape-font-specification:'Itim, Normal';font-variant-ligatures:normal;font-variant-caps:normal;font-variant-numeric:normal;font-variant-east-asian:normal;fill:#ffffff;stroke-width:1.87146"
         x="299.66779"
         y="215.27376">Piew</tspan></text>
    <path
       id="path3569"
       style="opacity:1;fill:#ffffff;stroke:none;stroke-width:0.999999"
       d="m 1013.2754,856.80859 a 115.96059,115.96059 0 0 0 -115.95899,115.96094 115.96059,115.96059 0 0 0 25.02539,71.90237 c 4.86646,-13.8065 14.63898,-18.5063 28.5,-19.6055 0.0804,-0.8172 0.26069,-1.6962 0.49804,-2.6211 l 27.22461,-105.98827 c 0.57097,-3.62127 1.3747,-7.46142 2.45313,-11.54492 0.30977,-1.61853 0.86096,-3.0309 1.60742,-4.26367 l 0.0117,-0.0449 c 0.59644,-2.32201 2.5006,-3.95041 4.77148,-4.42383 7.39992,-4.06198 19.68502,-2.95858 30.30082,-0.082 2.1883,0.59304 4.3545,1.22774 6.4648,1.85937 16.5273,4.94684 28.3427,24.66641 23.7403,41.29297 -4.6024,16.6266 -27.4945,33.88366 -44.1211,29.28125 -8.52064,-2.35858 -17.20007,-7.96213 -22.15044,-18.51953 l -22.17774,74.68173 c -0.25893,0.8717 -0.53956,1.6851 -0.86914,2.4023 12.42346,8.6291 18.20736,20.7311 13.73047,36.9043 -1.30411,4.7112 -3.3832,9.8472 -6.05664,14.7539 a 115.96059,115.96059 0 0 0 47.00589,9.9766 115.96059,115.96059 0 0 0 115.9609,-115.96102 115.96059,115.96059 0 0 0 -115.9609,-115.96094 z m 73.7519,43.60352 a 16.420329,16.420329 45 0 1 14.961,10.44336 16.420329,16.420329 45 0 1 -9.3184,21.26953 16.420329,16.420329 45 0 1 -21.2695,-9.32031 16.420329,16.420329 45 0 1 9.3184,-21.26953 16.420329,16.420329 45 0 1 6.3085,-1.12305 z"
       transform="scale(0.26458333)" />
    <text
       xml:space="preserve"
       style="font-style:normal;font-variant:normal;font-weight:normal;font-stretch:normal;font-size:74.8584px;line-height:1.25;font-family:Itim;-inkscape-font-specification:'Itim, Normal';font-variant-ligatures:normal;font-variant-caps:normal;font-variant-numeric:normal;font-variant-east-asian:normal;fill:#ffffff;fill-opacity:1;stroke:none;stroke-width:1.87146"
       x="299.66779"
       y="281.78711"
       id="text980"><tspan
         sodipodi:role="line"
         id="tspan978"
         style="font-style:normal;font-variant:normal;font-weight:normal;font-stretch:normal;font-size:74.8584px;font-family:Itim;-inkscape-font-specification:'Itim, Normal';font-variant-ligatures:normal;font-variant-caps:normal;font-variant-numeric:normal;font-variant-east-asian:normal;fill:#ffffff;stroke-width:1.87146"
         x="299.66779"
         y="281.78711">Piew</tspan></text>
    <g
       id="g1011"
       transform="translate(-346.2607,18.584614)">
      <g
         aria-label="Piew"
         id="text1007"
         style="font-size:74.8584px;line-height:1.25;font-family:Itim;-inkscape-font-specification:'Itim, Normal';fill:#ffffff;stroke-width:1.87146">
        <path
           d="m 323.54761,119.01842 q -2.91947,0 -4.94065,-0.14972 -1.94632,-0.22457 -5.16523,-0.67372 l -0.0749,7.86013 q -0.0749,2.02117 -0.0749,5.76409 0,1.94632 -1.12287,3.0692 -1.04802,1.04802 -2.39547,1.04802 -2.47033,0 -3.66806,-0.59887 -1.19774,-0.67373 -1.19774,-2.32061 0,-2.17089 0.3743,-6.13839 0.82344,-8.53386 0.82344,-17.51686 0,-8.38415 -0.52401,-15.795127 0.0749,-1.048017 1.04802,-2.395469 1.04801,-1.347451 2.62004,-1.497168 1.72174,0 5.46466,-0.598867 3.89264,-0.598867 5.91382,-0.598867 6.13839,0 9.50701,1.197734 3.44349,1.197735 6.88698,3.967496 3.74292,5.838955 3.74292,8.234428 0,5.01551 -2.02118,8.90814 -2.02118,3.89264 -5.91381,6.06354 -3.89264,2.17089 -9.28245,2.17089 z m -1.72174,-24.179264 q -2.39547,0 -4.19207,0.299433 -1.72174,0.224576 -4.19207,0.823443 0.29943,6.886968 0.29943,10.031028 0,3.21891 -0.22457,5.3898 3.21891,0.67373 5.09037,0.8983 1.87146,0.14972 4.19207,0.14972 5.53952,0 7.78527,-2.84462 2.32061,-2.91948 2.32061,-6.73726 0,-1.12287 -0.67372,-2.76976 -0.67373,-1.646881 -1.19774,-2.17089 -2.02117,-1.796601 -3.96749,-2.395469 -1.87146,-0.673725 -5.24009,-0.673725 z"
           id="path1013" />
        <path
           d="m 350.19714,87.877325 q 2.62005,0.224575 4.56636,1.422309 1.94632,1.122876 1.94632,3.443487 0,1.721743 -1.64688,2.76976 -1.57203,0.97316 -3.81778,0.97316 -2.17089,0 -2.99434,-1.122876 -0.82344,-1.122876 -0.82344,-2.320611 0,-2.245752 0.44915,-3.74292 0.52401,-1.497168 2.32061,-1.422309 z m 5.98867,33.162275 v 2.17089 q 0,2.91948 0.14972,5.53952 0.22458,2.54519 0.52401,5.16523 -0.0749,0.74858 -1.12288,1.57203 -1.04801,0.74858 -1.87146,0.74858 -1.42231,0 -2.91947,-0.52401 -1.42231,-0.59887 -1.72175,-1.42231 -0.44915,-2.39547 -0.44915,-4.26693 0,-6.13839 -0.37429,-13.77394 -0.29943,-6.73726 -0.29943,-9.43216 0,-1.34745 1.34745,-2.32061 1.34745,-0.97316 2.84462,-0.97316 2.17089,0 2.99433,0.97316 0.8983,0.97316 0.8983,3.06919 z"
           id="path1015" />
        <path
           d="m 364.79443,118.79384 q 0,-4.56636 2.02117,-7.56069 2.02118,-3.0692 5.61438,-5.7641 1.04802,-0.74859 3.51835,-1.27259 2.47033,-0.59887 4.34179,-0.59887 2.24575,0 4.71607,0.97316 2.54519,0.8983 4.11722,2.09603 2.76976,2.02118 3.81777,4.71608 1.04802,2.62005 1.04802,6.28811 0,1.57202 -1.7966,3.06919 -1.72174,1.42231 -3.74292,1.42231 l -2.84462,-0.0749 q -2.17089,0 -6.21325,0.14972 l -1.57202,0.0749 q -1.64689,0.14971 -2.47033,0.14971 -1.19773,0 -3.29377,-0.29943 0.29944,3.51835 2.62005,5.53952 2.32061,1.94632 5.01551,1.94632 4.71608,0 6.58754,-1.87146 1.57202,-1.12287 2.09603,-1.42231 0.52401,-0.29943 1.64689,-0.29943 1.19773,0 2.09603,1.12287 0.8983,1.12288 0.8983,2.24576 0,1.27259 -1.57202,2.62004 -1.49717,1.27259 -4.11722,2.6949 -1.4223,0.59887 -3.89263,1.04802 -2.47033,0.44915 -4.11721,0.44915 -2.62005,0 -5.83896,-1.49717 -3.21891,-1.57202 -4.79094,-3.44348 -1.57202,-1.87146 -2.76976,-5.31495 -1.12287,-3.44349 -1.12287,-7.18641 z m 14.89682,-2.02117 q 5.31494,0 7.78527,-0.3743 -0.14972,-2.17089 -1.34745,-3.51834 -1.19773,-1.42231 -3.29377,-2.39547 -0.67372,-0.29943 -1.19773,-0.44915 -0.52401,-0.14972 -1.19774,-0.14972 -3.44348,0 -5.83895,1.87146 -2.32061,1.87146 -2.76976,4.79094 3.74292,0.22458 7.86013,0.22458 z"
           id="path1017" />
        <path
           d="m 435.68522,118.12012 q 0.44915,-1.64689 0.97315,-4.49151 0.74859,-3.36862 1.19774,-5.09037 0.44915,-1.72174 1.19773,-2.91947 0.82345,-1.34746 1.42231,-1.79661 0.67373,-0.44915 1.42231,-0.44915 3.89264,0 3.89264,2.99434 0,1.49717 -1.19773,5.61438 -3.9675,11.97734 -5.68924,18.56488 -0.74859,2.76976 -2.24576,4.26693 -1.49716,1.42231 -4.04235,1.42231 -1.27259,0 -2.62004,-1.19773 -1.2726,-1.2726 -2.09604,-3.0692 l -0.82344,-2.02118 q -2.09604,-5.31494 -3.14405,-8.15956 -0.97316,-2.91948 -1.2726,-5.24009 l -0.67372,2.39547 q -1.7966,6.43782 -3.74292,11.97734 -0.97316,2.84462 -2.39547,4.11722 -1.42231,1.19773 -3.66806,1.19773 -1.34745,0 -2.39547,-0.59887 -0.97316,-0.59886 -1.87146,-2.02117 -1.19773,-1.94632 -2.32061,-5.24009 -1.04802,-3.29377 -3.06919,-10.2556 -0.97316,-2.99434 -1.79661,-6.28811 -0.82344,-3.36863 -0.82344,-4.71608 0,-1.57202 0.82344,-2.47032 0.82345,-0.8983 2.39547,-0.8983 2.02118,0 2.84462,0.82344 0.82344,0.74858 1.49717,2.32061 0.37429,2.6949 1.64688,7.63555 l 1.64689,7.03669 q 0.14972,0.82345 0.8983,3.44349 l 0.59887,2.17089 q 1.64688,-3.51834 2.76976,-6.73725 1.12287,-3.21891 2.47032,-7.93499 0.0749,-0.29944 1.49717,-5.16523 0.97316,-1.57203 1.72175,-2.32061 0.74858,-0.82344 1.49716,-0.82344 1.49717,0 2.54519,0.97315 1.12288,0.89831 1.64688,2.24576 0.89831,2.91947 1.57203,5.31494 0.29943,0.97316 1.34745,4.71608 1.12288,3.66806 2.02118,6.21325 0.8983,2.54518 1.49717,3.5932 z"
           id="path1019" />
      </g>
      <path
         id="path1009"
         style="opacity:1;fill:#ffffff;stroke-width:0.965174"
         d="m 986.4375,296.67188 a 113.61795,113.61795 0 0 0 -113.61914,113.61718 113.61795,113.61795 0 0 0 48.05273,92.67383 c -6.10368,-9.11844 -5.38515,-25.82249 -2.38086,-36.67578 3.61595,-13.06295 11.82533,-17.34407 23.81641,-18.29492 0.0651,-0.66104 0.21034,-1.37106 0.40234,-2.11914 l 25.31641,-98.55078 c 0.3191,-1.24222 1.11429,-2.22015 2.13867,-2.86329 5.19573,-8.91189 20.99905,-8.15131 34.16404,-4.58398 v -0.002 c 2.1253,0.57598 4.23,1.1932 6.2793,1.80664 16.0517,4.80444 27.5285,23.95554 23.0586,40.10351 -4.4699,16.14796 -26.7055,32.9074 -42.8535,28.4375 -9.58319,-2.65272 -19.38488,-9.51431 -23.51367,-23.20312 l -18.01758,60.67383 c -0.20939,0.70514 -0.43472,1.36327 -0.70117,1.94336 10.0487,6.97961 14.72656,16.76802 11.10547,29.84961 -3.76146,13.58854 -15.42818,31.54298 -28.85547,29.8164 a 113.61795,113.61795 0 0 0 55.60742,14.60547 113.61795,113.61795 0 0 0 113.6172,-113.61719 113.61795,113.61795 0 0 0 -13.207,-53.08008 13.616584,13.616584 0 0 1 -8.4512,15.00782 13.616584,13.616584 0 0 1 -17.6367,-7.72852 13.616584,13.616584 0 0 1 7.7285,-17.63672 13.616584,13.616584 0 0 1 13.6601,2.29102 113.61795,113.61795 0 0 0 -95.7109,-52.4707 z"
         transform="scale(0.26458333)" />
    </g>
  </g>
</svg>
